<?xml version="1.0" encoding="utf-8"?>
<!-- Generator: Adobe Illustrator 25.3.0, SVG Export Plug-In . SVG Version: 6.00 Build 0)  -->
<svg version="1.1" id="레이어_1" xmlns="http://www.w3.org/2000/svg" xmlns:xlink="http://www.w3.org/1999/xlink" x="0px"
	 y="0px" viewBox="0 0 80 80" style="enable-background:new 0 0 80 80;" xml:space="preserve">
<style type="text/css">
	.st0{fill:#FFFFFF;stroke:#D6D6D6;stroke-width:2;stroke-miterlimit:10;}
	.st1{fill:#FFFFFF;stroke:#80C480;stroke-width:2;stroke-miterlimit:10;}
	.st2{fill:#80C480;}
	.st3{fill:#FFFFFF;stroke:#F0D37A;stroke-width:2;stroke-miterlimit:10;}
	.st4{fill:#3B1D1D;}
	.st5{fill:#ED5656;}
	.st6{fill:#6DADD1;}
	.st7{fill:#70BF6A;}
	.st8{fill:#F9C85D;}
</style>
<circle class="st0" cx="40" cy="40" r="39"/>
<circle class="st1" cx="-148.95" cy="40" r="39"/>
<g>
	<g>
		<polygon class="st2" points="-144.15,25 -144.15,39.7 -153.75,25 -163.95,25 -163.95,55 -153.75,55 -153.75,40 -144.15,55 
			-133.95,55 -133.95,25 		"/>
	</g>
</g>
<circle class="st3" cx="-56.2" cy="40" r="39"/>
<path class="st4" d="M-62.45,26.41c0.31-0.05,0.61-0.13,0.9-0.26c0.51-0.1,1.03-0.21,1.54-0.31c0.07,0,0.15,0,0.2-0.06
	c0.66-0.07,1.31-0.15,1.97-0.22c0.18-0.03,0.37,0.02,0.54-0.06c1.04-0.02,2.09,0.01,3.13,0.07c0.31,0.09,0.63,0.09,0.95,0.13
	c0.34,0.05,0.68,0.1,1.02,0.15c0.27,0.07,0.54,0.13,0.82,0.2c0.32,0.07,0.63,0.15,0.95,0.22c0.06,0.04,0.13,0,0.19,0
	c0.39,0.05,0.74,0.21,1.11,0.35c0.34,0.14,0.68,0.27,1.02,0.41c0.23,0.08,0.45,0.18,0.67,0.3c0.12,0.07,0.25,0.14,0.38,0.19
	c0.37,0.15,0.72,0.36,1.05,0.57c0.09,0.07,0.19,0.11,0.28,0.16c0.28,0.18,0.57,0.33,0.82,0.54c0.25,0.18,0.49,0.37,0.75,0.54
	c0.09,0.06,0.18,0.12,0.27,0.18c0.29,0.26,0.6,0.52,0.89,0.79c0.05,0.04,0.1,0.08,0.15,0.12c0.29,0.3,0.59,0.58,0.86,0.9
	c0.04,0.05,0.07,0.11,0.11,0.15c0.28,0.31,0.52,0.66,0.79,0.98c0.09,0.15,0.18,0.29,0.28,0.43c0.14,0.23,0.29,0.45,0.42,0.69
	c0.22,0.31,0.37,0.66,0.54,0.99c0.17,0.37,0.32,0.75,0.47,1.13c0.05,0.18,0.08,0.37,0.14,0.55c0.05,0.17,0.08,0.35,0.16,0.52
	c0.13,0.57,0.3,1.14,0.28,1.74c0.02,0.43,0.11,0.86,0.07,1.29c0.03,0.41-0.05,0.81-0.09,1.21c-0.02,0.09-0.05,0.18-0.05,0.28
	c0,0.21-0.06,0.4-0.1,0.6c-0.09,0.33-0.16,0.66-0.25,0.99c-0.11,0.35-0.2,0.7-0.36,1.03c-0.08,0.16-0.13,0.33-0.21,0.49
	c-0.04,0.08-0.09,0.16-0.11,0.25c-0.04,0.12-0.09,0.23-0.16,0.33c-0.05,0.07-0.09,0.15-0.13,0.23c-0.05,0.09-0.1,0.19-0.15,0.28
	c-0.09,0.14-0.16,0.29-0.25,0.43c-0.11,0.21-0.24,0.4-0.36,0.59c-0.16,0.19-0.31,0.38-0.45,0.59c-0.2,0.32-0.48,0.57-0.7,0.87
	c-0.05,0.06-0.1,0.12-0.15,0.18c-0.22,0.25-0.48,0.46-0.73,0.68c-0.12,0.12-0.24,0.25-0.36,0.36c-0.24,0.18-0.45,0.37-0.69,0.55
	c-0.24,0.14-0.43,0.36-0.66,0.5c-0.16,0.1-0.31,0.21-0.47,0.3c-0.23,0.16-0.47,0.3-0.7,0.46c-0.19,0.13-0.4,0.24-0.6,0.35
	c-0.05,0.03-0.11,0.06-0.16,0.08c-0.14,0.07-0.28,0.14-0.41,0.22c-0.37,0.2-0.77,0.35-1.15,0.55c-0.28,0.08-0.55,0.23-0.83,0.3
	c-0.06,0.01-0.12,0.03-0.18,0.06c-0.09,0.04-0.18,0.07-0.27,0.1c-0.19,0.05-0.38,0.11-0.56,0.2c-0.36,0.13-0.74,0.21-1.11,0.3
	c-0.23,0.03-0.44,0.13-0.66,0.19c-0.24,0.01-0.47,0.08-0.71,0.1c-0.22,0.06-0.45,0.04-0.66,0.11c-0.53,0.11-1.06,0.15-1.6,0.16
	c-0.28,0.01-0.56-0.04-0.84,0.05c-0.77,0.05-1.54,0.03-2.3-0.07c-0.33-0.08-0.68-0.05-1.01-0.12c-0.27-0.05-0.51,0.02-0.73,0.2
	c-0.21,0.17-0.44,0.32-0.68,0.46c-0.11,0.06-0.22,0.13-0.31,0.21c-0.2,0.15-0.4,0.3-0.61,0.43c-0.3,0.16-0.56,0.39-0.83,0.6
	c-0.12,0.08-0.23,0.15-0.34,0.23c-0.3,0.22-0.62,0.4-0.93,0.62c-0.11,0.09-0.22,0.17-0.35,0.24c-0.23,0.15-0.46,0.31-0.68,0.47
	c-0.29,0.24-0.62,0.42-0.91,0.65c-0.02,0.02-0.05,0.04-0.07,0.06c-0.35,0.24-0.7,0.48-1.05,0.72c-0.03,0.02-0.06,0.03-0.09,0.04
	c-0.12,0.03-0.23,0.02-0.35-0.01c-0.21-0.08-0.31-0.26-0.39-0.46c-0.02-0.07-0.02-0.14-0.01-0.21c0.01-0.07,0.03-0.14,0.04-0.21
	c0.09-0.4,0.22-0.79,0.29-1.2c0.12-0.28,0.19-0.58,0.25-0.87c0.2-0.8,0.41-1.6,0.63-2.39c0.07-0.2,0.1-0.4,0.14-0.61
	c0.06-0.19,0.1-0.4,0.17-0.59c0.12-0.31,0.06-0.52-0.25-0.63c-0.08-0.06-0.16-0.1-0.24-0.14c-0.4-0.19-0.77-0.44-1.13-0.7
	c-0.1-0.08-0.2-0.15-0.3-0.21c-0.31-0.18-0.57-0.43-0.86-0.63c-0.21-0.08-0.34-0.26-0.49-0.41c-0.19-0.15-0.36-0.34-0.53-0.52
	c-0.16-0.17-0.32-0.33-0.48-0.49c-0.16-0.17-0.32-0.33-0.48-0.5c-0.17-0.18-0.34-0.36-0.48-0.57c-0.17-0.28-0.42-0.51-0.56-0.8
	c-0.06-0.11-0.13-0.21-0.21-0.31c-0.29-0.4-0.5-0.84-0.74-1.27c-0.1-0.31-0.27-0.58-0.37-0.89c-0.11-0.31-0.2-0.63-0.33-0.93
	c-0.16-0.44-0.23-0.89-0.34-1.34c-0.04-0.27-0.1-0.54-0.1-0.82c0.03-0.33-0.06-0.64-0.07-0.97c0-0.27-0.02-0.53,0.02-0.8
	c0.07-0.19,0.04-0.39,0.04-0.58c-0.01-0.25,0.06-0.5,0.1-0.75c0.07-0.29,0.13-0.57,0.18-0.86c0.08-0.41,0.22-0.79,0.36-1.18
	c0.13-0.31,0.24-0.63,0.39-0.94c0.04-0.13,0.1-0.25,0.17-0.36c0.15-0.21,0.22-0.47,0.34-0.69c0.21-0.32,0.39-0.67,0.62-0.98
	c0.61-0.82,1.24-1.61,1.99-2.3c0.38-0.33,0.76-0.67,1.15-0.99c0.32-0.21,0.6-0.47,0.93-0.65c0.21-0.13,0.41-0.27,0.62-0.4
	c0.13-0.08,0.25-0.17,0.38-0.25c0.03-0.02,0.05-0.03,0.08-0.04c0.11-0.05,0.22-0.1,0.32-0.16c0.2-0.11,0.42-0.2,0.61-0.33
	c0.21-0.13,0.43-0.23,0.69-0.23c0.07-0.04,0.14-0.08,0.21-0.12c0.43-0.17,0.86-0.33,1.29-0.5c0.06,0.02,0.1-0.02,0.14-0.06
	c0.08-0.06,0.17-0.09,0.27-0.08C-62.68,26.5-62.55,26.5-62.45,26.41z"/>
<g>
	<path class="st5" d="M24.56,31.82c1.39-2.68,3.37-4.83,5.89-6.47c3.38-2.21,7.1-3.12,11.1-2.78c3.84,0.33,7.2,1.83,10.09,4.38
		c0.22,0.19,0.27,0.29,0.03,0.52c-1.49,1.47-2.96,2.94-4.43,4.43c-0.19,0.19-0.31,0.25-0.56,0.05c-5.5-4.45-13.36-2.58-16.27,3.84
		c-0.04,0.08-0.09,0.16-0.13,0.24c-1.29-0.93-2.58-1.85-3.85-2.79C25.8,32.78,25.12,32.38,24.56,31.82z"/>
	<path class="st6" d="M46.39,48.35c0.93-0.8,1.79-1.66,2.45-2.71c0.41-0.65,0.77-1.33,1.01-2.07c-0.18-0.1-0.35-0.05-0.52-0.05
		c-2.96,0-5.91-0.01-8.87,0.01c-0.35,0-0.47-0.08-0.47-0.45c0.02-2.06,0.02-4.12,0-6.17c0-0.32,0.08-0.42,0.41-0.41
		c4.98,0.01,9.96,0,14.95,0.02c0.52,0,1.04,0.08,1.57,0.06c0.29-0.01,0.27,0.19,0.3,0.36c0.35,1.92,0.37,3.84,0.07,5.77
		c-0.6,3.85-2.29,7.15-5.09,9.87c-0.13,0.13-0.28,0.24-0.43,0.35c-0.09-0.06-0.19-0.1-0.27-0.17c-0.97-0.81-1.94-1.62-2.89-2.45
		C47.87,49.65,47.07,49.07,46.39,48.35z"/>
	<path class="st7" d="M46.39,48.35c0.67,0.72,1.48,1.3,2.22,1.95c0.95,0.83,1.93,1.64,2.89,2.45c0.08,0.07,0.18,0.12,0.27,0.17
		c-2.42,2.24-5.25,3.68-8.48,4.26c-5.32,0.96-10.11-0.25-14.33-3.62c-1.92-1.53-3.43-3.42-4.53-5.62c0.31-0.23,0.62-0.46,0.92-0.69
		c1.59-1.23,3.18-2.47,4.77-3.71c0.58,1.41,1.33,2.71,2.42,3.8c3.64,3.67,9.22,4.19,13.47,1.25C46.13,48.51,46.26,48.43,46.39,48.35
		z"/>
	<path class="st8" d="M30.12,43.54c-1.59,1.24-3.18,2.47-4.77,3.71c-0.3,0.24-0.61,0.46-0.92,0.69c-2.61-5.39-2.58-10.77,0.14-16.11
		c0.56,0.56,1.24,0.96,1.87,1.42c1.27,0.95,2.57,1.86,3.85,2.79C29.31,38.52,29.26,41.02,30.12,43.54z"/>
</g>
</svg>
